<?xml version="1.0" encoding="UTF-8" standalone="no"?>
<!-- Created with Inkscape (http://www.inkscape.org/) -->

<svg
   xmlns:dc="http://purl.org/dc/elements/1.1/"
   xmlns:cc="http://creativecommons.org/ns#"
   xmlns:rdf="http://www.w3.org/1999/02/22-rdf-syntax-ns#"
   xmlns:svg="http://www.w3.org/2000/svg"
   xmlns="http://www.w3.org/2000/svg"
   xmlns:sodipodi="http://sodipodi.sourceforge.net/DTD/sodipodi-0.dtd"
   xmlns:inkscape="http://www.inkscape.org/namespaces/inkscape"
   width="100mm"
   height="100mm"
   viewBox="0 0 100 100"
   version="1.1"
   id="svg8"
   inkscape:export-filename="/home/clay/Desktop/GoneRogueSprite.png"
   inkscape:export-xdpi="260.09601"
   inkscape:export-ydpi="260.09601"
   inkscape:version="0.92.3 (2405546, 2018-03-11)"
   sodipodi:docname="GoneRogueSprite.svg">
  <defs
     id="defs2">
    <inkscape:path-effect
       effect="bounding_box"
       id="path-effect4541"
       is_visible="true"
       linkedpath=""
       visualbounds="false" />
    <inkscape:path-effect
       effect="bounding_box"
       id="path-effect836"
       is_visible="true"
       linkedpath=""
       visualbounds="false" />
    <inkscape:path-effect
       effect="bounding_box"
       id="path-effect836-1"
       is_visible="true"
       linkedpath=""
       visualbounds="false" />
  </defs>
  <sodipodi:namedview
     id="base"
     pagecolor="#ffffff"
     bordercolor="#666666"
     borderopacity="1.0"
     inkscape:pageopacity="0.0"
     inkscape:pageshadow="2"
     inkscape:zoom="0.70710678"
     inkscape:cx="151.03874"
     inkscape:cy="306.08172"
     inkscape:document-units="mm"
     inkscape:current-layer="layer1"
     showgrid="false"
     inkscape:pagecheckerboard="true"
     inkscape:snap-global="false"
     inkscape:object-paths="true"
     inkscape:window-width="1366"
     inkscape:window-height="731"
     inkscape:window-x="0"
     inkscape:window-y="0"
     inkscape:window-maximized="1" />
  <metadata
     id="metadata5">
    <rdf:RDF>
      <cc:Work
         rdf:about="">
        <dc:format>image/svg+xml</dc:format>
        <dc:type
           rdf:resource="http://purl.org/dc/dcmitype/StillImage" />
        <dc:title></dc:title>
      </cc:Work>
    </rdf:RDF>
  </metadata>
  <g
     inkscape:label="Layer 1"
     inkscape:groupmode="layer"
     id="layer1"
     transform="translate(0,-197)">
    <path
       style="opacity:1;fill:#f4f4f4;fill-opacity:1;stroke:none;stroke-width:4.44157124;stroke-linecap:round;stroke-linejoin:round;stroke-miterlimit:88.40000153;stroke-dasharray:none;stroke-dashoffset:50.45669174;stroke-opacity:1"
       d="m 16.231719,9.5475991 c -2.20914,0 -4.00027,1.7906099 -4.00027,3.9997599 v 12.00029 c 0,2.20914 1.79113,3.99976 4.00027,3.99976 h 24.9995 c 2.20914,0 4.00028,-1.79062 4.00028,-3.99976 v -12.00029 c 0,-2.20915 -1.79114,-3.9997599 -4.00028,-3.9997599 z m 2.18695,4.9996899 h 20.422 c 0.35672,0.0925 0.69573,0.20992 0.91468,0.43925 0.26403,0.27656 0.37981,0.68911 0.47594,1.10278 v 6.71328 c -0.14805,0.48991 -0.29168,1.00101 -0.59997,1.28985 -0.27088,0.25379 -0.64403,0.36565 -1.01492,0.45475 h -19.58588 c -0.51706,-0.15282 -1.07426,-0.29081 -1.39785,-0.6165 -0.21011,-0.21147 -0.31972,-0.50202 -0.40101,-0.80615 v -7.34477 c 0.079,-0.3253 0.1867,-0.6305 0.39377,-0.84285 0.19403,-0.19896 0.4816,-0.30861 0.79324,-0.38964 z"
       id="path4551-9"
       inkscape:connector-curvature="0" />
    <g
       transform="matrix(0.26458333,0,0,0.26458333,-151.33695,-30.442303)"
       aria-label="ROGUE"
       style="font-style:normal;font-variant:normal;font-weight:normal;font-stretch:normal;font-size:85.33333588px;line-height:1.25;font-family:Dyuthi;-inkscape-font-specification:Dyuthi;letter-spacing:0px;word-spacing:0px;fill:#000000;fill-opacity:1;stroke:none"
       id="flowRoot815-2"
       inkscape:path-effect="#path-effect836-1">
      <path
         inkscape:connector-curvature="0"
         d="m 298.58333,230.84635 h 6 q 2.95834,0 5.25,2.41667 2.25,2.29167 2.25,8.58334 0,6.33333 -2.25,8.625 -2.125,2.25 -5.25,2.33333 h -6 z m 19,24.79167 q 1.79167,-1.54166 2.95834,-3.375 3.20833,-5 3.20833,-10.04166 0,-6.20834 -4.125,-11.00001 -4.04167,-4.75 -10.125,-5.625 l -0.375,-0.0833 q -0.66667,-0.16667 -2.25,-0.16667 H 292.5 q -2.58333,0 -4.41667,1.83334 -1.83333,1.83333 -1.83333,4.33333 v 40.45834 q 0,2.41666 1.83333,4.25 1.75,1.75 4.25,1.75 H 292.5 q 2.375,0 4.25,-1.75 1.83333,-1.66667 1.83333,-4.25 v -12.83334 l 9.16667,-0.16666 3.91667,11.625 q 1.95833,5.875 6.83333,7.125 2.33333,0.66666 4.45833,-0.58334 h 0.0833 q 1.83333,-0.0417 2.75,-3.66666 0.70833,-2.83334 -0.625,-5.08334 z"
         style="stroke:#ffffff;stroke-width:7.42677164;stroke-miterlimit:4;stroke-dasharray:none;stroke-opacity:1"
         id="path825-9"
         inkscape:original-d="m 298.58333,230.84635 h 6 q 2.95834,0 5.25,2.41667 2.25,2.29167 2.25,8.58334 0,6.33333 -2.25,8.625 -2.125,2.25 -5.25,2.33333 h -6 z m 19,24.79167 q 1.79167,-1.54166 2.95834,-3.375 3.20833,-5 3.20833,-10.04166 0,-6.20834 -4.125,-11.00001 -4.04167,-4.75 -10.125,-5.625 l -0.375,-0.0833 q -0.66667,-0.16667 -2.25,-0.16667 H 292.5 q -2.58333,0 -4.41667,1.83334 -1.83333,1.83333 -1.83333,4.33333 v 40.45834 q 0,2.41666 1.83333,4.25 1.75,1.75 4.25,1.75 H 292.5 q 2.375,0 4.25,-1.75 1.83333,-1.66667 1.83333,-4.25 v -12.83334 l 9.16667,-0.16666 3.91667,11.625 q 1.95833,5.875 6.83333,7.125 2.33333,0.66666 4.45833,-0.58334 h 0.0833 q 1.83333,-0.0417 2.75,-3.66666 0.70833,-2.83334 -0.625,-5.08334 z" />
      <path
         inkscape:connector-curvature="0"
         d="m 349.20833,266.72136 q -4.04166,-5.08334 -4,-18.45834 0,-6.79166 4,-11.79166 3.95834,-4.91667 9.45834,-4.91667 5,0 9.20833,4.91667 4.20833,4.91666 4.20833,11.79166 0,13.54167 -4.20833,18.45834 -4.20833,4.91666 -9.45833,4.91666 -5.25,0 -9.20834,-4.91666 z m 9.45834,-42.16667 q -0.58334,0 -1.79167,0.16666 -10.125,0.91667 -17.25,8.04167 -7.375,7.29167 -7.375,19.20834 0,11 6.45833,17.83333 6.45834,6.83333 18.16667,7.95833 0.79167,0.20834 1.125,0.16667 0.125,-0.0417 0.29167,0 H 359 q 0.125,0.0417 0.29167,0 0.375,-0.125 1.125,-0.16667 11.375,-0.70833 18.16666,-7.95833 6.50001,-6.95833 6.45834,-17.83333 0.0417,-11.83334 -7.375,-19.20834 -6.66667,-6.75 -17.25,-8.04167 -1.125,-0.16666 -1.75,-0.16666 z"
         style="stroke:#ffffff;stroke-width:7.42677164;stroke-miterlimit:4;stroke-dasharray:none;stroke-opacity:1"
         id="path827-3"
         inkscape:original-d="m 349.20833,266.72136 q -4.04166,-5.08334 -4,-18.45834 0,-6.79166 4,-11.79166 3.95834,-4.91667 9.45834,-4.91667 5,0 9.20833,4.91667 4.20833,4.91666 4.20833,11.79166 0,13.54167 -4.20833,18.45834 -4.20833,4.91666 -9.45833,4.91666 -5.25,0 -9.20834,-4.91666 z m 9.45834,-42.16667 q -0.58334,0 -1.79167,0.16666 -10.125,0.91667 -17.25,8.04167 -7.375,7.29167 -7.375,19.20834 0,11 6.45833,17.83333 6.45834,6.83333 18.16667,7.95833 0.79167,0.20834 1.125,0.16667 0.125,-0.0417 0.29167,0 H 359 q 0.125,0.0417 0.29167,0 0.375,-0.125 1.125,-0.16667 11.375,-0.70833 18.16666,-7.95833 6.50001,-6.95833 6.45834,-17.83333 0.0417,-11.83334 -7.375,-19.20834 -6.66667,-6.75 -17.25,-8.04167 -1.125,-0.16666 -1.75,-0.16666 z" />
      <path
         inkscape:connector-curvature="0"
         d="m 420.25,247.76302 q -2.33333,0 -3.70833,1.83334 -1.66667,2.125 -0.75,5.16666 v 0.0833 q 0.91666,3.5 3.79166,2.125 L 422,255.76302 q 0.91667,-0.45833 2,0.75 0.91667,0.75 0.91667,2.125 v 6.08334 q 0,1.375 -1.29167,2.66666 -1.29167,1.29167 -3.125,1.29167 -1,0 -1.66667,0 -7.25,0 -12.25,-4.41667 -5.41666,-4.875 -6,-11.54166 -0.75,-8 4.625,-13.70834 3.75,-4 13.16667,-3.125 L 430,237.05469 q 3.58333,0.29167 5.08333,-3.41667 l 0.0833,-0.0833 q 1.29166,-3.66667 -0.66667,-6.70834 -1.08333,-1.5 -2.91667,-1.66666 -9.125,-0.75 -12.16666,-0.75 -13.04167,0 -21.41667,7.125 -8.83333,7.45833 -8.91667,20.33333 0.0833,11.45834 7.375,18.45834 7.75,7.45833 21.66667,7.45833 4.125,0 9.54167,-0.91667 1.33333,-0.20833 2.79166,-0.45833 2.83334,-0.58333 4.625,-2.79167 1.83334,-2.29166 1.91667,-5.16666 v -15.625 q 0.0833,-2.125 -1.45833,-3.625 -1.5,-1.54167 -3.625,-1.45834 z"
         style="stroke:#ffffff;stroke-width:7.42677164;stroke-miterlimit:4;stroke-dasharray:none;stroke-opacity:1"
         id="path829-9"
         inkscape:original-d="m 420.25,247.76302 q -2.33333,0 -3.70833,1.83334 -1.66667,2.125 -0.75,5.16666 v 0.0833 q 0.91666,3.5 3.79166,2.125 L 422,255.76302 q 0.91667,-0.45833 2,0.75 0.91667,0.75 0.91667,2.125 v 6.08334 q 0,1.375 -1.29167,2.66666 -1.29167,1.29167 -3.125,1.29167 -1,0 -1.66667,0 -7.25,0 -12.25,-4.41667 -5.41666,-4.875 -6,-11.54166 -0.75,-8 4.625,-13.70834 3.75,-4 13.16667,-3.125 L 430,237.05469 q 3.58333,0.29167 5.08333,-3.41667 l 0.0833,-0.0833 q 1.29166,-3.66667 -0.66667,-6.70834 -1.08333,-1.5 -2.91667,-1.66666 -9.125,-0.75 -12.16666,-0.75 -13.04167,0 -21.41667,7.125 -8.83333,7.45833 -8.91667,20.33333 0.0833,11.45834 7.375,18.45834 7.75,7.45833 21.66667,7.45833 4.125,0 9.54167,-0.91667 1.33333,-0.20833 2.79166,-0.45833 2.83334,-0.58333 4.625,-2.79167 1.83334,-2.29166 1.91667,-5.16666 v -15.625 q 0.0833,-2.125 -1.45833,-3.625 -1.5,-1.54167 -3.625,-1.45834 z" />
      <path
         inkscape:connector-curvature="0"
         d="m 475.58333,256.67969 q 0.0417,4 -2.95833,7 -2.95833,2.95833 -6.5,2.95833 h -0.29167 q -3.58333,0 -6.625,-2.95833 -3.08333,-3 -3.04166,-7.20833 l 0.25,-25.41667 q 0,-2.5 -1.75,-4.33334 -1.79167,-1.83333 -4.33334,-1.83333 h -0.16666 q -3.33334,0.0417 -5.16667,1.83333 -1.75,1.75 -1.75,4.33334 v 23.66667 q 0,9.5 6.625,16.125 6.66667,6.66666 16.125,6.66666 h 0.45833 q 9.25,0.0417 15.66667,-6.54166 6.375,-6.5 6.375,-15.66667 v -24.25 q 0,-2.58334 -1.75,-4.33334 -1.79167,-1.83333 -5.08333,-1.83333 H 481.5 q -2.58333,0.0417 -4.41667,1.83333 -1.75,1.83334 -1.75,4.33334 z"
         style="stroke:#ffffff;stroke-width:7.42677164;stroke-miterlimit:4;stroke-dasharray:none;stroke-opacity:1"
         id="path831-0"
         inkscape:original-d="m 475.58333,256.67969 q 0.0417,4 -2.95833,7 -2.95833,2.95833 -6.5,2.95833 h -0.29167 q -3.58333,0 -6.625,-2.95833 -3.08333,-3 -3.04166,-7.20833 l 0.25,-25.41667 q 0,-2.5 -1.75,-4.33334 -1.79167,-1.83333 -4.33334,-1.83333 h -0.16666 q -3.33334,0.0417 -5.16667,1.83333 -1.75,1.75 -1.75,4.33334 v 23.66667 q 0,9.5 6.625,16.125 6.66667,6.66666 16.125,6.66666 h 0.45833 q 9.25,0.0417 15.66667,-6.54166 6.375,-6.5 6.375,-15.66667 v -24.25 q 0,-2.58334 -1.75,-4.33334 -1.79167,-1.83333 -5.08333,-1.83333 H 481.5 q -2.58333,0.0417 -4.41667,1.83333 -1.75,1.83334 -1.75,4.33334 z" />
      <path
         inkscape:connector-curvature="0"
         d="m 507.29167,268.26302 v -13.16666 l 15.125,0.375 q 1.875,0.0417 3.33333,-1.375 1.375,-1.33334 1.375,-3.33334 v -0.16666 q 0.0417,-1.95834 -1.33333,-3.25 -1.5,-1.41667 -3.375,-1.375 l -15.125,0.375 v -11.83334 l 16.04166,0.75 q 1.625,0.0833 3.04167,-1.04167 0.45833,-0.375 1.625,-2.66666 l 0.0417,-0.16667 q 1.125,-2.29167 -0.91667,-4.79167 -1.33333,-1.66666 -3.70833,-1.66666 h -21.20834 q -3.16666,0 -5.25,2.125 -2.20833,2.29166 -2.20833,5.33333 v 37.66667 q 0,3.04167 2.20833,5.25 2.20834,2.20833 5.25,2.20833 h 22.33334 q 2,0.0417 3.375,-1.375 1.375,-1.33333 1.375,-3.33333 v -0.16667 q 0,-2.08333 -1.375,-3.33333 -1.54167,-1.375 -3.375,-1.375 z"
         style="stroke:#ffffff;stroke-width:7.42677164;stroke-miterlimit:4;stroke-dasharray:none;stroke-opacity:1"
         id="path833-8"
         inkscape:original-d="m 507.29167,268.26302 v -13.16666 l 15.125,0.375 q 1.875,0.0417 3.33333,-1.375 1.375,-1.33334 1.375,-3.33334 v -0.16666 q 0.0417,-1.95834 -1.33333,-3.25 -1.5,-1.41667 -3.375,-1.375 l -15.125,0.375 v -11.83334 l 16.04166,0.75 q 1.625,0.0833 3.04167,-1.04167 0.45833,-0.375 1.625,-2.66666 l 0.0417,-0.16667 q 1.125,-2.29167 -0.91667,-4.79167 -1.33333,-1.66666 -3.70833,-1.66666 h -21.20834 q -3.16666,0 -5.25,2.125 -2.20833,2.29166 -2.20833,5.33333 v 37.66667 q 0,3.04167 2.20833,5.25 2.20834,2.20833 5.25,2.20833 h 22.33334 q 2,0.0417 3.375,-1.375 1.375,-1.33333 1.375,-3.33333 v -0.16667 q 0,-2.08333 -1.375,-3.33333 -1.54167,-1.375 -3.375,-1.375 z" />
    </g>
    <path
       style="opacity:1;fill:#f4f4f4;fill-opacity:1;stroke:none;stroke-width:4.44157124;stroke-linecap:round;stroke-linejoin:round;stroke-miterlimit:88.40000153;stroke-dasharray:none;stroke-dashoffset:50.45669174;stroke-opacity:1"
       d="m -81.873656,51.278336 c -2.178032,0.369435 -3.644494,2.434367 -3.275059,4.6124 l 2.006813,11.831306 c 0.369435,2.178035 2.434789,3.643906 4.612821,3.274476 l 24.64745,-4.180684 c 2.178031,-0.369433 3.644508,-2.43437 3.275071,-4.612399 l -2.006809,-11.831309 c -0.369441,-2.178032 -2.434802,-3.643898 -4.612831,-3.274464 z m 2.992248,4.563565 20.134418,-3.415178 c 0.36717,0.03154 0.721039,0.09061 0.975259,0.280103 0.30656,0.228505 0.489701,0.615888 0.653651,1.007654 l 1.122669,6.618745 c -0.064,0.507764 -0.120179,1.035687 -0.37582,1.372012 -0.224628,0.295516 -0.573809,0.468205 -0.924581,0.618075 l -19.310076,3.275354 c -0.535331,-0.0642 -1.107762,-0.107066 -1.481258,-0.374052 -0.242511,-0.173355 -0.399168,-0.441489 -0.530177,-0.727742 l -1.228268,-7.241339 c 0.02345,-0.333922 0.07864,-0.652841 0.24728,-0.896826 0.158019,-0.228611 0.423206,-0.384808 0.716903,-0.516806 z"
       id="path4551-8"
       inkscape:connector-curvature="0" />
    <path
       style="opacity:1;fill:#f4f4f4;fill-opacity:1;stroke:none;stroke-width:4.44157124;stroke-linecap:round;stroke-linejoin:round;stroke-miterlimit:88.40000153;stroke-dasharray:none;stroke-dashoffset:50.45669174;stroke-opacity:1"
       d="m -25.69233,48.373808 c -1.93467,-1.066468 -4.367691,-0.362997 -5.434161,1.571673 l -5.793181,10.509341 c -1.06647,1.93467 -0.3623,4.367493 1.572371,5.43396 l 21.893479,12.068574 c 1.93466,1.066472 4.3676925,0.363 5.4341615,-1.57167 l 5.793179,-10.509337 c 1.066472,-1.934671 0.362292,-4.367493 -1.572379,-5.433962 z m -0.49839,5.434268 17.8847095,9.858782 c 0.267739,0.253215 0.507949,0.5197 0.588991,0.826241 0.0977,0.369655 -5e-5,0.786847 -0.115562,1.195525 l -3.2408605,5.879203 c -0.36616,0.357569 -0.73868,0.73583 -1.148099,0.839949 -0.359751,0.0915 -0.740539,0.009 -1.10836,-0.0917 L -30.48237,62.860932 c -0.37904,-0.383442 -0.800402,-0.773282 -0.926561,-1.214712 -0.0819,-0.286626 -0.0376,-0.593995 0.038,-0.899584 l 3.54571,-6.43223 c 0.226219,-0.246746 0.467879,-0.462034 0.751729,-0.548033 0.26597,-0.08058 0.570751,-0.03778 0.88278,0.0417 z"
       id="path4551-4-5"
       inkscape:connector-curvature="0" />
    <path
       style="opacity:1;fill:#f4f4f4;fill-opacity:1;stroke:none;stroke-width:4.44157124;stroke-linecap:round;stroke-linejoin:round;stroke-miterlimit:88.40000153;stroke-dasharray:none;stroke-dashoffset:50.45669174;stroke-opacity:1"
       d="m -56.53052,49.598968 c -2.209139,0 -4.00027,1.79061 -4.00027,3.999759 v 5.98673 c 0,2.209141 1.791131,3.999761 4.00027,3.999761 h 24.999508 c 2.209141,0 4.00028,-1.79062 4.00028,-3.999761 v -5.98673 c 0,-2.209149 -1.791139,-3.999759 -4.00028,-3.999759 z m 2.18695,4.999691 h 20.422008 c 0.356722,0.0925 0.69573,0.209918 0.91468,0.439248 0.264031,0.276561 0.37981,0.68911 0.475941,1.102781 v 0.699719 c -0.148051,0.489911 -0.29168,1.001012 -0.59997,1.289849 -0.27088,0.253791 -0.64403,0.365652 -1.01492,0.45475 h -19.585887 c -0.517062,-0.152818 -1.074261,-0.290809 -1.397852,-0.616497 -0.210108,-0.211471 -0.31972,-0.502021 -0.40101,-0.806151 v -1.331209 c 0.079,-0.325303 0.1867,-0.630502 0.393771,-0.842852 0.19403,-0.198958 0.4816,-0.30861 0.793239,-0.389638 z"
       id="path4551-9-8-0"
       inkscape:connector-curvature="0"
       sodipodi:nodetypes="ssssssssscccccsccccccc" />
    <g
       id="g4913"
       transform="translate(-0.65576882,0.57006241)">
      <g
         inkscape:path-effect="#path-effect836"
         id="flowRoot815"
         style="font-style:normal;font-variant:normal;font-weight:normal;font-stretch:normal;font-size:85.33333588px;line-height:1.25;font-family:Dyuthi;-inkscape-font-specification:Dyuthi;letter-spacing:0px;word-spacing:0px;fill:#000000;fill-opacity:1;stroke:none"
         transform="matrix(0.26458333,0,0,0.26458333,-58.208333,162.45417)"
         aria-label="ROGUE">
        <path
           inkscape:connector-curvature="0"
           inkscape:original-d="m 298.58333,230.84635 h 6 q 2.95834,0 5.25,2.41667 2.25,2.29167 2.25,8.58334 0,6.33333 -2.25,8.625 -2.125,2.25 -5.25,2.33333 h -6 z m 19,24.79167 q 1.79167,-1.54166 2.95834,-3.375 3.20833,-5 3.20833,-10.04166 0,-6.20834 -4.125,-11.00001 -4.04167,-4.75 -10.125,-5.625 l -0.375,-0.0833 q -0.66667,-0.16667 -2.25,-0.16667 H 292.5 q -2.58333,0 -4.41667,1.83334 -1.83333,1.83333 -1.83333,4.33333 v 40.45834 q 0,2.41666 1.83333,4.25 1.75,1.75 4.25,1.75 H 292.5 q 2.375,0 4.25,-1.75 1.83333,-1.66667 1.83333,-4.25 v -12.83334 l 9.16667,-0.16666 3.91667,11.625 q 1.95833,5.875 6.83333,7.125 2.33333,0.66666 4.45833,-0.58334 h 0.0833 q 1.83333,-0.0417 2.75,-3.66666 0.70833,-2.83334 -0.625,-5.08334 z"
           id="path825"
           style="stroke:#ffffff;stroke-width:6.67086601;stroke-miterlimit:4;stroke-dasharray:none;stroke-opacity:1"
           d="m 298.58333,230.84635 h 6 q 2.95834,0 5.25,2.41667 2.25,2.29167 2.25,8.58334 0,6.33333 -2.25,8.625 -2.125,2.25 -5.25,2.33333 h -6 z m 19,24.79167 q 1.79167,-1.54166 2.95834,-3.375 3.20833,-5 3.20833,-10.04166 0,-6.20834 -4.125,-11.00001 -4.04167,-4.75 -10.125,-5.625 l -0.375,-0.0833 q -0.66667,-0.16667 -2.25,-0.16667 H 292.5 q -2.58333,0 -4.41667,1.83334 -1.83333,1.83333 -1.83333,4.33333 v 40.45834 q 0,2.41666 1.83333,4.25 1.75,1.75 4.25,1.75 H 292.5 q 2.375,0 4.25,-1.75 1.83333,-1.66667 1.83333,-4.25 v -12.83334 l 9.16667,-0.16666 3.91667,11.625 q 1.95833,5.875 6.83333,7.125 2.33333,0.66666 4.45833,-0.58334 h 0.0833 q 1.83333,-0.0417 2.75,-3.66666 0.70833,-2.83334 -0.625,-5.08334 z" />
        <path
           inkscape:connector-curvature="0"
           inkscape:original-d="m 349.20833,266.72136 q -4.04166,-5.08334 -4,-18.45834 0,-6.79166 4,-11.79166 3.95834,-4.91667 9.45834,-4.91667 5,0 9.20833,4.91667 4.20833,4.91666 4.20833,11.79166 0,13.54167 -4.20833,18.45834 -4.20833,4.91666 -9.45833,4.91666 -5.25,0 -9.20834,-4.91666 z m 9.45834,-42.16667 q -0.58334,0 -1.79167,0.16666 -10.125,0.91667 -17.25,8.04167 -7.375,7.29167 -7.375,19.20834 0,11 6.45833,17.83333 6.45834,6.83333 18.16667,7.95833 0.79167,0.20834 1.125,0.16667 0.125,-0.0417 0.29167,0 H 359 q 0.125,0.0417 0.29167,0 0.375,-0.125 1.125,-0.16667 11.375,-0.70833 18.16666,-7.95833 6.50001,-6.95833 6.45834,-17.83333 0.0417,-11.83334 -7.375,-19.20834 -6.66667,-6.75 -17.25,-8.04167 -1.125,-0.16666 -1.75,-0.16666 z"
           id="path827"
           style="stroke:#ffffff;stroke-width:6.67086601;stroke-miterlimit:4;stroke-dasharray:none;stroke-opacity:1"
           d="m 349.20833,266.72136 q -4.04166,-5.08334 -4,-18.45834 0,-6.79166 4,-11.79166 3.95834,-4.91667 9.45834,-4.91667 5,0 9.20833,4.91667 4.20833,4.91666 4.20833,11.79166 0,13.54167 -4.20833,18.45834 -4.20833,4.91666 -9.45833,4.91666 -5.25,0 -9.20834,-4.91666 z m 9.45834,-42.16667 q -0.58334,0 -1.79167,0.16666 -10.125,0.91667 -17.25,8.04167 -7.375,7.29167 -7.375,19.20834 0,11 6.45833,17.83333 6.45834,6.83333 18.16667,7.95833 0.79167,0.20834 1.125,0.16667 0.125,-0.0417 0.29167,0 H 359 q 0.125,0.0417 0.29167,0 0.375,-0.125 1.125,-0.16667 11.375,-0.70833 18.16666,-7.95833 6.50001,-6.95833 6.45834,-17.83333 0.0417,-11.83334 -7.375,-19.20834 -6.66667,-6.75 -17.25,-8.04167 -1.125,-0.16666 -1.75,-0.16666 z" />
        <path
           inkscape:connector-curvature="0"
           inkscape:original-d="m 420.25,247.76302 q -2.33333,0 -3.70833,1.83334 -1.66667,2.125 -0.75,5.16666 v 0.0833 q 0.91666,3.5 3.79166,2.125 L 422,255.76302 q 0.91667,-0.45833 2,0.75 0.91667,0.75 0.91667,2.125 v 6.08334 q 0,1.375 -1.29167,2.66666 -1.29167,1.29167 -3.125,1.29167 -1,0 -1.66667,0 -7.25,0 -12.25,-4.41667 -5.41666,-4.875 -6,-11.54166 -0.75,-8 4.625,-13.70834 3.75,-4 13.16667,-3.125 L 430,237.05469 q 3.58333,0.29167 5.08333,-3.41667 l 0.0833,-0.0833 q 1.29166,-3.66667 -0.66667,-6.70834 -1.08333,-1.5 -2.91667,-1.66666 -9.125,-0.75 -12.16666,-0.75 -13.04167,0 -21.41667,7.125 -8.83333,7.45833 -8.91667,20.33333 0.0833,11.45834 7.375,18.45834 7.75,7.45833 21.66667,7.45833 4.125,0 9.54167,-0.91667 1.33333,-0.20833 2.79166,-0.45833 2.83334,-0.58333 4.625,-2.79167 1.83334,-2.29166 1.91667,-5.16666 v -15.625 q 0.0833,-2.125 -1.45833,-3.625 -1.5,-1.54167 -3.625,-1.45834 z"
           id="path829"
           style="stroke:#ffffff;stroke-width:6.67086601;stroke-miterlimit:4;stroke-dasharray:none;stroke-opacity:1"
           d="m 420.25,247.76302 q -2.33333,0 -3.70833,1.83334 -1.66667,2.125 -0.75,5.16666 v 0.0833 q 0.91666,3.5 3.79166,2.125 L 422,255.76302 q 0.91667,-0.45833 2,0.75 0.91667,0.75 0.91667,2.125 v 6.08334 q 0,1.375 -1.29167,2.66666 -1.29167,1.29167 -3.125,1.29167 -1,0 -1.66667,0 -7.25,0 -12.25,-4.41667 -5.41666,-4.875 -6,-11.54166 -0.75,-8 4.625,-13.70834 3.75,-4 13.16667,-3.125 L 430,237.05469 q 3.58333,0.29167 5.08333,-3.41667 l 0.0833,-0.0833 q 1.29166,-3.66667 -0.66667,-6.70834 -1.08333,-1.5 -2.91667,-1.66666 -9.125,-0.75 -12.16666,-0.75 -13.04167,0 -21.41667,7.125 -8.83333,7.45833 -8.91667,20.33333 0.0833,11.45834 7.375,18.45834 7.75,7.45833 21.66667,7.45833 4.125,0 9.54167,-0.91667 1.33333,-0.20833 2.79166,-0.45833 2.83334,-0.58333 4.625,-2.79167 1.83334,-2.29166 1.91667,-5.16666 v -15.625 q 0.0833,-2.125 -1.45833,-3.625 -1.5,-1.54167 -3.625,-1.45834 z" />
        <path
           inkscape:connector-curvature="0"
           inkscape:original-d="m 475.58333,256.67969 q 0.0417,4 -2.95833,7 -2.95833,2.95833 -6.5,2.95833 h -0.29167 q -3.58333,0 -6.625,-2.95833 -3.08333,-3 -3.04166,-7.20833 l 0.25,-25.41667 q 0,-2.5 -1.75,-4.33334 -1.79167,-1.83333 -4.33334,-1.83333 h -0.16666 q -3.33334,0.0417 -5.16667,1.83333 -1.75,1.75 -1.75,4.33334 v 23.66667 q 0,9.5 6.625,16.125 6.66667,6.66666 16.125,6.66666 h 0.45833 q 9.25,0.0417 15.66667,-6.54166 6.375,-6.5 6.375,-15.66667 v -24.25 q 0,-2.58334 -1.75,-4.33334 -1.79167,-1.83333 -5.08333,-1.83333 H 481.5 q -2.58333,0.0417 -4.41667,1.83333 -1.75,1.83334 -1.75,4.33334 z"
           id="path831"
           style="stroke:#ffffff;stroke-width:6.67086601;stroke-miterlimit:4;stroke-dasharray:none;stroke-opacity:1"
           d="m 475.58333,256.67969 q 0.0417,4 -2.95833,7 -2.95833,2.95833 -6.5,2.95833 h -0.29167 q -3.58333,0 -6.625,-2.95833 -3.08333,-3 -3.04166,-7.20833 l 0.25,-25.41667 q 0,-2.5 -1.75,-4.33334 -1.79167,-1.83333 -4.33334,-1.83333 h -0.16666 q -3.33334,0.0417 -5.16667,1.83333 -1.75,1.75 -1.75,4.33334 v 23.66667 q 0,9.5 6.625,16.125 6.66667,6.66666 16.125,6.66666 h 0.45833 q 9.25,0.0417 15.66667,-6.54166 6.375,-6.5 6.375,-15.66667 v -24.25 q 0,-2.58334 -1.75,-4.33334 -1.79167,-1.83333 -5.08333,-1.83333 H 481.5 q -2.58333,0.0417 -4.41667,1.83333 -1.75,1.83334 -1.75,4.33334 z" />
        <path
           inkscape:connector-curvature="0"
           inkscape:original-d="m 507.29167,268.26302 v -13.16666 l 15.125,0.375 q 1.875,0.0417 3.33333,-1.375 1.375,-1.33334 1.375,-3.33334 v -0.16666 q 0.0417,-1.95834 -1.33333,-3.25 -1.5,-1.41667 -3.375,-1.375 l -15.125,0.375 v -11.83334 l 16.04166,0.75 q 1.625,0.0833 3.04167,-1.04167 0.45833,-0.375 1.625,-2.66666 l 0.0417,-0.16667 q 1.125,-2.29167 -0.91667,-4.79167 -1.33333,-1.66666 -3.70833,-1.66666 h -21.20834 q -3.16666,0 -5.25,2.125 -2.20833,2.29166 -2.20833,5.33333 v 37.66667 q 0,3.04167 2.20833,5.25 2.20834,2.20833 5.25,2.20833 h 22.33334 q 2,0.0417 3.375,-1.375 1.375,-1.33333 1.375,-3.33333 v -0.16667 q 0,-2.08333 -1.375,-3.33333 -1.54167,-1.375 -3.375,-1.375 z"
           id="path833"
           style="stroke:#ffffff;stroke-width:6.67086601;stroke-miterlimit:4;stroke-dasharray:none;stroke-opacity:1"
           d="m 507.29167,268.26302 v -13.16666 l 15.125,0.375 q 1.875,0.0417 3.33333,-1.375 1.375,-1.33334 1.375,-3.33334 v -0.16666 q 0.0417,-1.95834 -1.33333,-3.25 -1.5,-1.41667 -3.375,-1.375 l -15.125,0.375 v -11.83334 l 16.04166,0.75 q 1.625,0.0833 3.04167,-1.04167 0.45833,-0.375 1.625,-2.66666 l 0.0417,-0.16667 q 1.125,-2.29167 -0.91667,-4.79167 -1.33333,-1.66666 -3.70833,-1.66666 h -21.20834 q -3.16666,0 -5.25,2.125 -2.20833,2.29166 -2.20833,5.33333 v 37.66667 q 0,3.04167 2.20833,5.25 2.20834,2.20833 5.25,2.20833 h 22.33334 q 2,0.0417 3.375,-1.375 1.375,-1.33333 1.375,-3.33333 v -0.16667 q 0,-2.08333 -1.375,-3.33333 -1.54167,-1.375 -3.375,-1.375 z" />
      </g>
      <path
         inkscape:connector-curvature="0"
         id="path4760"
         d="m 48.084757,245.41137 1.87088,-1.33635 -0.46772,1.46998 -2.00452,1.40317 z"
         style="opacity:1;fill:#000000;fill-opacity:1;stroke:#ffffff;stroke-width:0.80199999;stroke-linecap:round;stroke-linejoin:round;stroke-miterlimit:88.40000153;stroke-dasharray:none;stroke-dashoffset:50.45669174;stroke-opacity:1" />
      <path
         inkscape:connector-curvature="0"
         id="path4764"
         d="m 48.906617,260.50542 -1.26953,1.00226 0.26727,2.60588 1.00226,-2.33862 z"
         style="opacity:1;fill:#000000;fill-opacity:1;stroke:#ffffff;stroke-width:0.80199999;stroke-linecap:round;stroke-linejoin:round;stroke-miterlimit:88.40000153;stroke-dasharray:none;stroke-dashoffset:50.45669174;stroke-opacity:1" />
      <path
         inkscape:connector-curvature="0"
         id="path4768"
         d="m 55.247587,263.57901 1.87089,1.60362 -2.13816,1.87089 -1.5368,-2.47224 z"
         style="opacity:1;fill:#000000;fill-opacity:1;stroke:#ffffff;stroke-width:0.80199999;stroke-linecap:round;stroke-linejoin:round;stroke-miterlimit:88.40000153;stroke-dasharray:none;stroke-dashoffset:50.45669174;stroke-opacity:1" />
      <path
         inkscape:connector-curvature="0"
         id="path4770"
         d="m 46.233917,240.33993 1.20271,-2.27179 0.26727,2.27179 -1.33635,1.5368 z"
         style="opacity:1;fill:#000000;fill-opacity:1;stroke:#ffffff;stroke-width:0.80199999;stroke-linecap:round;stroke-linejoin:round;stroke-miterlimit:88.40000153;stroke-dasharray:none;stroke-dashoffset:50.45669174;stroke-opacity:1" />
      <path
         inkscape:connector-curvature="0"
         id="path4772"
         d="m 53.109427,242.33109 2.13815,-1.87089 -0.8018,2.47224 -1.73726,1.1359 z"
         style="opacity:1;fill:#000000;fill-opacity:1;stroke:#ffffff;stroke-width:0.80199999;stroke-linecap:round;stroke-linejoin:round;stroke-miterlimit:88.40000153;stroke-dasharray:none;stroke-dashoffset:50.45669174;stroke-opacity:1" />
      <path
         inkscape:connector-curvature="0"
         id="path4774"
         d="m 50.309777,264.11355 -0.86863,1.60362 0.60136,1.80406 0.8018,-1.73725 z"
         style="opacity:1;fill:#000000;fill-opacity:1;stroke:#ffffff;stroke-width:0.80199999;stroke-linecap:round;stroke-linejoin:round;stroke-miterlimit:88.40000153;stroke-dasharray:none;stroke-dashoffset:50.45669174;stroke-opacity:1" />
      <g
         transform="translate(-54.653648,162.82834)"
         id="g4872">
        <path
           style="opacity:1;fill:#ffffff;fill-opacity:1;stroke:none;stroke-width:2.602;stroke-linecap:round;stroke-linejoin:round;stroke-miterlimit:88.40000153;stroke-dasharray:none;stroke-dashoffset:50.45669174;stroke-opacity:1"
           d="m 98.22155,98.148131 4.25627,-3.882091 -2.38538,-0.53788 3.81193,-2.011203 c 0,0 -5.472347,-0.678196 -5.636047,-0.608039 -0.163703,0.07016 1.239462,-0.65481 1.239462,-0.65481 l -3.203895,0.327406 0.584652,2.57247 -1.169302,0.888669 0.958829,0.53788 -1.145919,1.052375 1.520095,-0.02339 z"
           id="path4842"
           inkscape:connector-curvature="0" />
        <g
           id="g4861">
          <path
             inkscape:connector-curvature="0"
             id="path4551-9-8-6"
             d="m 85.409921,85.463232 c -2.151258,0.502381 -3.488259,2.653397 -2.985876,4.804665 l 1.361439,5.829853 c 0.502382,2.151258 2.653792,3.487643 4.805049,2.985256 l 9.006705,-2.103326 2.19383,-1.972193 -1.10838,-0.633214 -1.3165,0.238947 2.39817,-2.06979 -1.91287,0.03491 -0.7905,-0.608206 -6.882096,1.60717 c -0.538264,-0.03123 -1.112244,-0.0389 -1.50142,-0.282462 -0.252696,-0.158148 -0.425512,-0.416168 -0.573831,-0.693835 l -0.302726,-1.296311 c 0.003,-0.334742 0.03843,-0.656429 0.191786,-0.910305 0.143701,-0.237872 0.398796,-0.410044 0.683844,-0.559821 l 6.164493,-1.439589 1.01155,-1.731126 -1.17547,-1.509064 1.58986,-2.22703 z"
             style="opacity:1;fill:#000000;fill-opacity:1;stroke:#ffffff;stroke-width:2.602;stroke-linecap:round;stroke-linejoin:round;stroke-miterlimit:88.40000153;stroke-dasharray:none;stroke-dashoffset:50.45669174;stroke-opacity:1" />
          <path
             inkscape:connector-curvature="0"
             id="path4551"
             d="m 62.981003,82.249807 c -2.178032,0.369435 -3.644494,2.434367 -3.275059,4.612398 l 2.006813,11.831308 c 0.369435,2.178037 2.434789,3.643907 4.612821,3.274477 l 24.647451,-4.180687 c 2.17803,-0.36943 3.644509,-2.434369 3.275069,-4.612398 L 92.241289,81.343597 c -0.36944,-2.178032 -2.4348,-3.643899 -4.61283,-3.274464 z m 2.992248,4.563564 20.134418,-3.415178 c 0.36717,0.03154 0.72104,0.09061 0.97526,0.280103 0.30656,0.228505 0.4897,0.615889 0.65365,1.007654 l 1.12267,6.618746 c -0.064,0.507764 -0.12018,1.035687 -0.37582,1.372013 -0.22463,0.295516 -0.57381,0.468204 -0.92458,0.618074 l -19.310078,3.275354 c -0.535331,-0.0642 -1.107762,-0.107068 -1.481258,-0.374054 -0.242511,-0.173354 -0.399168,-0.441487 -0.530177,-0.72774 l -1.228268,-7.241339 c 0.02345,-0.333922 0.07864,-0.652841 0.24728,-0.896826 0.158019,-0.228611 0.423206,-0.384807 0.716903,-0.516807 z"
             style="opacity:1;fill:#000000;fill-opacity:1;stroke:#ffffff;stroke-width:2.602;stroke-linecap:round;stroke-linejoin:round;stroke-miterlimit:88.40000153;stroke-dasharray:none;stroke-dashoffset:50.45669174;stroke-opacity:1" />
          <path
             inkscape:connector-curvature="0"
             id="path4551-9-8-6-1"
             d="m 96.266778,82.927498 -10.857215,2.535761 c -1.267347,0.29596 -2.247847,1.165826 -2.740401,2.269112 l 5.194514,2.99775 c 0.02908,-0.119734 0.06732,-0.234355 0.128675,-0.335896 0.143701,-0.237871 0.399145,-0.409888 0.684194,-0.559655 l 6.164483,-1.439706 1.01131,-1.731161 -1.17564,-1.508951 z"
             style="opacity:1;fill:#000000;fill-opacity:1;stroke:#ffffff;stroke-width:2.602;stroke-linecap:round;stroke-linejoin:round;stroke-miterlimit:88.40000153;stroke-dasharray:none;stroke-dashoffset:50.45669174;stroke-opacity:1" />
          <path
             sodipodi:nodetypes="ccccc"
             inkscape:connector-curvature="0"
             id="path4835"
             d="m 87.563173,88.995248 c -0.69661,0.487691 -1.174037,1.955767 -1.033151,2.588156 l -2.847267,-1.664196 c -0.221568,-1.465925 0.322819,-2.172433 0.939272,-2.667888 z"
             style="opacity:1;fill:#000000;fill-opacity:1;stroke:none;stroke-width:3.102;stroke-linecap:round;stroke-linejoin:round;stroke-miterlimit:88.40000153;stroke-dasharray:none;stroke-dashoffset:50.45669174;stroke-opacity:1" />
          <path
             sodipodi:nodetypes="cccccccccccccc"
             inkscape:connector-curvature="0"
             id="path4844"
             d="m 95.084634,89.533594 0.992188,-0.23151 1.728618,-1.625033 -0.646089,0.08325 1.100283,-1.56707 L 96.109895,85.06875 99.68177,81.1 c -1.75682,0.27787 -3.708575,0.475473 -5.126302,0.892969 l -1.058334,2.877344 -1.058333,1.289843 h 1.620573 l -0.595313,0.496094 0.959115,0.06615 z"
             style="opacity:1;fill:#ffffff;fill-opacity:1;stroke:none;stroke-width:2.602;stroke-linecap:round;stroke-linejoin:round;stroke-miterlimit:88.40000153;stroke-dasharray:none;stroke-dashoffset:50.45669174;stroke-opacity:1" />
          <path
             inkscape:connector-curvature="0"
             id="path4846"
             d="m 96.058338,96.008303 2.6894,-0.631423 -1.695493,-0.268941 1.707184,-0.608039 c 0,0 -1.8475,-0.315712 -1.777341,-0.385869 0.07016,-0.07016 2.093053,-1.49671 2.093053,-1.49671 l -2.537389,0.830207 -0.853593,0.643117 -0.268938,1.894271 z"
             style="opacity:1;fill:#000000;fill-opacity:1;stroke:none;stroke-width:2.602;stroke-linecap:round;stroke-linejoin:round;stroke-miterlimit:88.40000153;stroke-dasharray:none;stroke-dashoffset:50.45669174;stroke-opacity:1" />
          <path
             inkscape:connector-curvature="0"
             id="path4848"
             d="m 92.211325,85.168853 2.712787,-1.192689 -1.683798,1.777341 1.333008,-0.07016 -0.584653,0.678196 2.081361,-0.304019 -2.174907,1.216078 -2.104747,-0.982218 z"
             style="opacity:1;fill:#000000;fill-opacity:1;stroke:none;stroke-width:2.602;stroke-linecap:round;stroke-linejoin:round;stroke-miterlimit:88.40000153;stroke-dasharray:none;stroke-dashoffset:50.45669174;stroke-opacity:1" />
        </g>
      </g>
      <g
         transform="translate(-60.827574,162.64125)"
         id="g4881">
        <path
           style="opacity:1;fill:#000000;fill-opacity:1;stroke:#ffffff;stroke-width:2.602;stroke-linecap:round;stroke-linejoin:round;stroke-miterlimit:88.40000153;stroke-dasharray:none;stroke-dashoffset:50.45669174;stroke-opacity:1"
           d="m 119.19079,84.971486 -0.56883,0.863514 -1.83129,1.199037 1.55662,0.4444 -1.50818,1.181976 c 0.53229,0.09891 1.0212,0.154435 1.51049,0.210345 l -0.21932,1.299876 1.44788,0.0041 6.37003,-2.429676 c 0.36627,-0.0407 0.72485,-0.0518 1.01116,0.08444 0.34525,0.164308 0.60045,0.508492 0.83769,0.860752 l 0.24936,0.653757 c 0.0363,0.510506 0.0842,1.039225 -0.10089,1.418969 -0.16265,0.333663 -0.47145,0.571165 -0.78623,0.786594 l -5.62067,2.143854 0.0207,0.03191 1.33559,1.064086 -0.82314,1.02909 1.93595,0.763195 0.009,1.518147 7.36757,-2.810151 c 2.06409,-0.787292 3.09947,-3.098671 2.31219,-5.162751 l -2.13355,-5.593635 c -0.78734,-2.064085 -3.09896,-3.098817 -5.16304,-2.311525 z"
           id="path4551-9-8-9"
           inkscape:connector-curvature="0"
           sodipodi:nodetypes="ccccccccccccccccccccccccc" />
        <path
           style="opacity:1;fill:#000000;fill-opacity:1;stroke:#ffffff;stroke-width:2.602;stroke-linecap:round;stroke-linejoin:round;stroke-miterlimit:88.40000153;stroke-dasharray:none;stroke-dashoffset:50.45669174;stroke-opacity:1"
           d="m 133.18524,77.89007 c -1.93467,-1.066468 -4.36769,-0.362997 -5.43416,1.571673 l -5.79318,10.509341 c -1.06647,1.934671 -0.3623,4.367492 1.57237,5.43396 l 21.89348,12.068576 c 1.93466,1.06647 4.36769,0.363 5.43416,-1.57167 l 5.79318,-10.509341 c 1.06647,-1.93467 0.36229,-4.367491 -1.57238,-5.43396 z m -0.49839,5.434267 17.88471,9.858783 c 0.26774,0.253215 0.50795,0.5197 0.58899,0.826241 0.0977,0.369654 -5e-5,0.786846 -0.11556,1.195524 l -3.24086,5.879205 c -0.36616,0.35757 -0.73868,0.73583 -1.1481,0.83995 -0.35975,0.0915 -0.74054,0.009 -1.10836,-0.0917 L 128.3952,92.377194 c -0.37904,-0.383442 -0.8004,-0.773283 -0.92656,-1.214714 -0.0819,-0.286625 -0.0376,-0.593995 0.038,-0.899583 l 3.54571,-6.43223 c 0.22622,-0.246745 0.46788,-0.462033 0.75173,-0.548033 0.26597,-0.08058 0.57075,-0.03778 0.88278,0.0417 z"
           id="path4551-4"
           inkscape:connector-curvature="0" />
        <path
           style="opacity:1;fill:#000000;fill-opacity:1;stroke:#ffffff;stroke-width:2.602;stroke-linecap:round;stroke-linejoin:round;stroke-miterlimit:88.40000153;stroke-dasharray:none;stroke-dashoffset:50.45669174;stroke-opacity:1"
           d="m 133.32324,89.148683 -5.24877,1.029912 c -0.0115,0.214371 -0.0459,0.4147 -0.12868,0.584459 -0.16265,0.333661 -0.47173,0.571087 -0.78651,0.786516 l -5.62085,2.144057 0.0207,0.03152 1.33584,1.064017 -0.82321,1.029396 1.9358,0.763259 0.009,1.518253 7.36751,-2.810163 c 2.06409,-0.787289 3.09929,-3.098914 2.31201,-5.162992 z"
           id="path4551-9-8-9-5"
           inkscape:connector-curvature="0" />
        <path
           style="opacity:1;fill:#000000;fill-opacity:1;stroke:none;stroke-width:2.602;stroke-linecap:round;stroke-linejoin:round;stroke-miterlimit:88.40000153;stroke-dasharray:none;stroke-dashoffset:50.45669174;stroke-opacity:1"
           d="m 129.12487,91.305408 c 0.14589,-0.501059 0.12826,-1.016932 -0.0393,-1.466443 l 0.90749,-1.396778 1.55029,-0.297656 0.97152,2.546615 z"
           id="path4837"
           inkscape:connector-curvature="0"
           sodipodi:nodetypes="cccccc" />
        <path
           style="opacity:1;fill:#ffffff;fill-opacity:1;stroke:none;stroke-width:2.602;stroke-linecap:round;stroke-linejoin:round;stroke-miterlimit:88.40000153;stroke-dasharray:none;stroke-dashoffset:50.45669174;stroke-opacity:1"
           d="m 115.73465,87.786404 -1.49014,1.883493 2.59524,0.310181 -0.70421,1.752865 1.93477,-0.248047 h 1.70325 l -0.13229,-2.761589 0.7276,-0.479557 -1.00872,-0.06615 1.25677,-0.892969 -1.5875,-0.479557 c -0.99555,1.94416 1.15755,-0.56224 1.15755,-0.56224 l 0.54571,-0.677995 -2.47225,-1.581541 -4.69744,3.758881 z"
           id="path4840"
           inkscape:connector-curvature="0"
           sodipodi:nodetypes="cccccccccccccccc" />
        <path
           style="opacity:1;fill:#ffffff;fill-opacity:1;stroke:none;stroke-width:2.602;stroke-linecap:round;stroke-linejoin:round;stroke-miterlimit:88.40000153;stroke-dasharray:none;stroke-dashoffset:50.45669174;stroke-opacity:1"
           d="m 122.45247,91.93138 -3.77031,2.166276 1.27331,0.479558 1.2237,0.446484 -2.10014,0.297656 -1.53789,0.942578 5.39089,1.240235 -1.5875,0.992187 1.43867,0.429948 -0.67799,1.190628 2.23242,-0.76068 z"
           id="path4850"
           inkscape:connector-curvature="0" />
        <path
           style="opacity:1;fill:#0b0b0b;fill-opacity:1;stroke:none;stroke-width:2.602;stroke-linecap:round;stroke-linejoin:round;stroke-miterlimit:88.40000153;stroke-dasharray:none;stroke-dashoffset:50.45669174;stroke-opacity:1"
           d="m 125.47864,96.148177 -1.47174,0.429948 -0.38034,-0.297656 -1.78594,-0.115755 2.30271,-0.942578 -0.78135,-0.214974 0.39687,-0.132292 -1.10794,-0.314193 1.24023,-0.314192 -1.52135,-0.446485 1.00872,-0.132292 1.93477,0.214974 z"
           id="path4852"
           inkscape:connector-curvature="0"
           sodipodi:nodetypes="ccccccccccccc" />
      </g>
    </g>
  </g>
</svg>
