<?xml version="1.0" encoding="UTF-8" standalone="no"?>
<!-- Created with Inkscape (http://www.inkscape.org/) -->

<svg
   xmlns:dc="http://purl.org/dc/elements/1.1/"
   xmlns:cc="http://creativecommons.org/ns#"
   xmlns:rdf="http://www.w3.org/1999/02/22-rdf-syntax-ns#"
   xmlns:svg="http://www.w3.org/2000/svg"
   xmlns="http://www.w3.org/2000/svg"
   xmlns:sodipodi="http://sodipodi.sourceforge.net/DTD/sodipodi-0.dtd"
   xmlns:inkscape="http://www.inkscape.org/namespaces/inkscape"
   width="270.93301mm"
   height="270.93301mm"
   viewBox="0 0 270.93301 270.93301"
   version="1.1"
   id="svg8"
   inkscape:export-filename="C:\Users\Clay\Desktop\WoodFrame.png"
   inkscape:export-xdpi="96.000114"
   inkscape:export-ydpi="96.000114"
   inkscape:version="0.92.4 (5da689c313, 2019-01-14)"
   sodipodi:docname="Toy Glass Texture.svg">
  <defs
     id="defs2" />
  <sodipodi:namedview
     id="base"
     pagecolor="#ffffff"
     bordercolor="#666666"
     borderopacity="1.0"
     inkscape:pageopacity="0.0"
     inkscape:pageshadow="2"
     inkscape:zoom="0.24748737"
     inkscape:cx="99.098333"
     inkscape:cy="843.58784"
     inkscape:document-units="mm"
     inkscape:current-layer="layer1"
     showgrid="false"
     inkscape:snap-nodes="true"
     inkscape:pagecheckerboard="true"
     inkscape:window-width="1366"
     inkscape:window-height="745"
     inkscape:window-x="-8"
     inkscape:window-y="-8"
     inkscape:window-maximized="1" />
  <metadata
     id="metadata5">
    <rdf:RDF>
      <cc:Work
         rdf:about="">
        <dc:format>image/svg+xml</dc:format>
        <dc:type
           rdf:resource="http://purl.org/dc/dcmitype/StillImage" />
        <dc:title></dc:title>
      </cc:Work>
    </rdf:RDF>
  </metadata>
  <g
     inkscape:label="Layer 1"
     inkscape:groupmode="layer"
     id="layer1"
     transform="translate(0,-26.067)">
    <rect
       style="opacity:0.98999999;fill:#386f5b;fill-opacity:0.09444445;stroke:none;stroke-width:20;stroke-linecap:round;stroke-linejoin:round;stroke-miterlimit:4;stroke-dasharray:none;stroke-opacity:1"
       id="rect1656"
       width="270.93329"
       height="270.93329"
       x="-0.080492318"
       y="26.114834"
       inkscape:export-xdpi="96.000015"
       inkscape:export-ydpi="96.000015"
       inkscape:export-filename="C:\Users\Clay\Desktop\WoodFrameWithGlass2.png" />
    <rect
       style="opacity:0.98999999;fill:#000000;fill-opacity:0.03333333;stroke:none;stroke-width:20;stroke-linecap:round;stroke-linejoin:round;stroke-miterlimit:4;stroke-dasharray:none;stroke-opacity:1"
       id="rect1489"
       width="270.93332"
       height="270.93332"
       x="362.66934"
       y="2.1970439"
       inkscape:export-xdpi="96.000015"
       inkscape:export-ydpi="96.000015" />
    <path
       style="fill:#ffffff;fill-opacity:1;stroke:none;stroke-width:0.26458332px;stroke-linecap:butt;stroke-linejoin:miter;stroke-opacity:1"
       d="m 387.45596,212.08669 10.55715,-5.21176 c 3.20113,-7.7819 5.41056,-9.83182 -9.88898,-4.67722 4.51669,-6.09768 8.75476,-12.08044 -0.66817,-12.42803 -5.72222,0.71825 -10.57369,1.95895 -13.63074,4.27631 -1.30644,3.4655 -3.86469,6.16065 -2.13816,11.49259 5.20867,2.48435 9.89002,8.30845 15.7689,6.54811 z"
       id="path828"
       inkscape:connector-curvature="0"
       sodipodi:nodetypes="ccccccc" />
    <path
       style="fill:#ffffff;fill-opacity:1;stroke:none;stroke-width:0.26458332px;stroke-linecap:butt;stroke-linejoin:miter;stroke-opacity:1"
       d="m 387.45596,221.04021 c 3.78137,-3.55616 6.63462,-5.72016 9.75534,-8.28535 l 0.80181,-5.87993 c 0.14373,1.96687 0.19892,3.95144 1.20271,5.7463 1.87089,-1.04459 3.74177,-1.87499 5.61266,-1.33635 -1.05958,8.97147 -10.34246,10.79225 -19.37704,12.82894 0.4686,-0.89149 1.00821,-1.83031 2.00452,-3.07361 z"
       id="path830"
       inkscape:connector-curvature="0"
       sodipodi:nodetypes="ccccccc" />
    <path
       style="fill:#ffffff;fill-opacity:1;stroke:none;stroke-width:0.26458332px;stroke-linecap:butt;stroke-linejoin:miter;stroke-opacity:1"
       d="m 386.11961,244.15903 6.28084,-8.68626 -8.41899,1.60362 c -2.76212,0.53421 -3.60807,2.98457 -3.60814,6.28083 1.49904,2.07164 3.49303,1.99849 5.74629,0.80181 z"
       id="path832"
       inkscape:connector-curvature="0"
       sodipodi:nodetypes="ccccc" />
    <path
       style="fill:#ffffff;fill-opacity:1;stroke:none;stroke-width:0.26458332px;stroke-linecap:butt;stroke-linejoin:miter;stroke-opacity:1"
       d="m 402.28942,186.29518 c 6.28781,-2.39845 10.15296,-7.21957 15.10073,-10.95806 -1.86067,-3.45343 -5.97701,-5.94014 -11.35896,-7.88445 -3.28902,3.16908 -6.44175,6.45741 -7.75081,11.35896 1.66891,1.94839 3.18419,4.97217 5.07812,5.34539 -0.0154,0.71272 -0.56712,1.42544 -1.06908,2.13816 z"
       id="path834"
       inkscape:connector-curvature="0"
       sodipodi:nodetypes="cccccc" />
    <path
       style="fill:#ffffff;fill-opacity:1;stroke:none;stroke-width:0.26458332px;stroke-linecap:butt;stroke-linejoin:miter;stroke-opacity:1"
       d="m 429.15001,173.7335 h 2.6727 c 0.56786,-0.98373 1.76012,-1.75932 0.93544,-3.20723 -2.7371,-0.25493 -3.46834,0.49308 -4.81085,0.93544 0.71076,0.75727 2.55099,1.51453 1.20271,2.27179 z"
       id="path836"
       inkscape:connector-curvature="0"
       sodipodi:nodetypes="ccccc" />
    <path
       style="fill:#ffffff;fill-opacity:1;stroke:none;stroke-width:0.26458332px;stroke-linecap:butt;stroke-linejoin:miter;stroke-opacity:1"
       d="m 446.65617,173.19897 1.20271,-1.87089 c -0.64607,-1.33987 -2.3176,-1.48336 -4.00904,-1.60362 l -2.80633,-0.4009 c 2.12581,-0.89574 4.09547,-2.41607 6.5481,-2.00452 0.48999,1.36624 0.97999,1.13026 1.46998,1.33634 l 4.27631,2.00453 c 0.26148,1.04894 -0.21808,1.80147 -1.73725,2.13815 z"
       id="path838"
       inkscape:connector-curvature="0"
       sodipodi:nodetypes="ccccccccc" />
    <path
       style="fill:#ffffff;fill-opacity:1;stroke:none;stroke-width:0.26458332px;stroke-linecap:butt;stroke-linejoin:miter;stroke-opacity:1"
       d="m 447.19071,187.23062 c 3.04844,-3.19623 4.08075,-9.08065 9.22079,-9.48807 1.73078,-0.36607 3.27994,-1.00458 5.47903,-0.66818 1.36244,0.32264 2.55887,-0.0141 3.60814,-0.93544 l 3.20723,2.53906 -3.74177,0.93544 c -1.74832,2.30528 -5.84743,2.25975 -9.2208,2.93997 l -7.08264,4.81085 z"
       id="path840"
       inkscape:connector-curvature="0"
       sodipodi:nodetypes="ccccccccc" />
    <path
       style="fill:#ffffff;fill-opacity:1;stroke:none;stroke-width:0.26458332px;stroke-linecap:butt;stroke-linejoin:miter;stroke-opacity:1"
       d="m 437.3828,235.90609 3.39344,-8.71868 c -0.0653,-0.75381 1.70908,-1.81422 -2.53906,-1.87088 l 13.76438,-9.88897 5.34539,-3.87541 c 0,0 4.94448,-2.53906 5.74629,-2.13816 1.45106,0.31975 3.32109,3.71084 2.00452,3.87541 l -8.15172,8.28535 c -0.43994,1.64541 -0.3002,3.00098 0.26727,4.14268 l 7.08264,1.33635 c -1.38402,-11.22286 12.56167,-17.72888 18.84251,-26.59332 3.16083,-3.20117 6.06427,-6.51123 2.80633,-12.42803 l -10.02261,-1.33635 c -2.35705,1.39164 -4.98615,2.47235 -9.08716,1.87089 -1.91475,-1.45554 -3.39076,6.30242 -5.07813,9.6217 l 0.66818,3.74177 c -2.19513,0.81013 -4.33578,0.80291 -6.28083,-2.13815 -0.60878,-2.09361 -0.21895,-4.18723 0.93544,-6.28084 -1.31546,-2.09834 -3.2247,-2.63801 -6.54811,0.53454 l -4.94448,7.08265 2.80633,5.47902 4.27631,-2.80633 c -1.3579,5.1629 -3.52563,6.81657 -5.61266,8.8199 l -15.368,5.87992 c -2.061,0.82753 -3.40691,1.89342 -3.20723,3.47451 2.22063,5.39434 2.69346,11.95389 3.4745,18.30796 1.65767,-0.92745 3.59654,-1.43883 5.42646,-4.37753 z"
       id="path842"
       inkscape:connector-curvature="0"
       sodipodi:nodetypes="ccccccccccccccccccccccccccc" />
    <path
       style="fill:#ffffff;fill-opacity:1;stroke:none;stroke-width:0.26458332px;stroke-linecap:butt;stroke-linejoin:miter;stroke-opacity:1"
       d="m 418.88553,196.42057 8.50447,-5.48065 c 1.44891,-2.45684 2.26785,-5.03968 2.45684,-7.74851 -2.28125,0.19642 -4.23839,1.16274 -8.69345,1.70089 2.44029,1.88254 3.72364,3.72376 2.64583,5.48066 z"
       id="path844"
       inkscape:connector-curvature="0"
       sodipodi:nodetypes="cccccc" />
    <path
       style="fill:#ffffff;fill-opacity:1;stroke:none;stroke-width:0.26458332px;stroke-linecap:butt;stroke-linejoin:miter;stroke-opacity:1"
       d="m 467.64446,187.16016 3.2128,-4.15774 1.13393,-5.66965 6.61458,2.26786 c -1.13257,2.24819 -3.2378,3.59828 -5.81229,4.51373 -1.85347,0.65907 -3.39902,2.05578 -5.14902,3.0458 z"
       id="path846"
       inkscape:connector-curvature="0"
       sodipodi:nodetypes="ccccsc" />
    <path
       style="fill:#ffffff;fill-opacity:1;stroke:none;stroke-width:0.26458332px;stroke-linecap:butt;stroke-linejoin:miter;stroke-opacity:1"
       d="m 456.49416,173.742 2.83482,-1.70089 c 3.76591,2.23664 7.37055,0.44141 10.96131,-1.7009 -0.47974,-2.08991 0.15652,-4.80479 -4.53571,-4.53571 l -5.8452,2.82532 c -0.70918,1.86435 -2.53906,3.17264 -3.41522,5.11218 z"
       id="path848"
       inkscape:connector-curvature="0"
       sodipodi:nodetypes="cccccc" />
    <path
       style="fill:#ffffff;fill-opacity:1;stroke:none;stroke-width:0.26458332px;stroke-linecap:butt;stroke-linejoin:miter;stroke-opacity:1"
       d="m 517.88298,210.41554 10.55715,-5.21176 c 3.20113,-7.7819 5.41056,-9.83182 -9.88898,-4.67722 4.51669,-6.09768 8.75476,-12.08044 -0.66817,-12.42803 -5.72222,0.71825 -10.57369,1.95895 -13.63074,4.27631 -1.30644,3.4655 -3.86469,6.16065 -2.13816,11.49259 5.20867,2.48435 9.89002,8.30845 15.7689,6.54811 z"
       id="path828-4"
       inkscape:connector-curvature="0"
       sodipodi:nodetypes="ccccccc" />
    <path
       style="fill:#ffffff;fill-opacity:1;stroke:none;stroke-width:0.26458332px;stroke-linecap:butt;stroke-linejoin:miter;stroke-opacity:1"
       d="m 517.88298,219.36906 c 3.78137,-3.55616 6.63462,-5.72016 9.75534,-8.28535 l 0.80181,-5.87993 c 0.14373,1.96687 0.19892,3.95144 1.20271,5.7463 1.87089,-1.04459 3.74177,-1.87499 5.61266,-1.33635 -1.05958,8.97147 -10.34246,10.79225 -19.37704,12.82894 0.4686,-0.89149 1.00821,-1.83031 2.00452,-3.07361 z"
       id="path830-4"
       inkscape:connector-curvature="0"
       sodipodi:nodetypes="ccccccc" />
    <path
       style="fill:#ffffff;fill-opacity:1;stroke:none;stroke-width:0.26458332px;stroke-linecap:butt;stroke-linejoin:miter;stroke-opacity:1"
       d="m 516.54663,242.48788 6.28084,-8.68626 -8.41899,1.60362 c -2.76212,0.53421 -3.60807,2.98457 -3.60814,6.28083 1.49904,2.07164 3.49303,1.99849 5.74629,0.80181 z"
       id="path832-7"
       inkscape:connector-curvature="0"
       sodipodi:nodetypes="ccccc" />
    <path
       style="fill:#ffffff;fill-opacity:1;stroke:none;stroke-width:0.26458332px;stroke-linecap:butt;stroke-linejoin:miter;stroke-opacity:1"
       d="m 532.71644,184.62403 c 6.28781,-2.39845 10.15296,-7.21957 15.10073,-10.95806 -1.86067,-3.45343 -5.97701,-5.94014 -11.35896,-7.88445 -3.28902,3.16908 -6.44175,6.45741 -7.75081,11.35896 1.66891,1.94839 3.18419,4.97217 5.07812,5.34539 -0.0154,0.71272 -0.56712,1.42544 -1.06908,2.13816 z"
       id="path834-0"
       inkscape:connector-curvature="0"
       sodipodi:nodetypes="cccccc" />
    <path
       style="fill:#ffffff;fill-opacity:1;stroke:none;stroke-width:0.26458332px;stroke-linecap:butt;stroke-linejoin:miter;stroke-opacity:1"
       d="m 559.57703,172.06235 h 2.6727 c 0.56786,-0.98373 1.76012,-1.75932 0.93544,-3.20723 -2.7371,-0.25493 -3.46834,0.49308 -4.81085,0.93544 0.71076,0.75727 2.55099,1.51453 1.20271,2.27179 z"
       id="path836-8"
       inkscape:connector-curvature="0"
       sodipodi:nodetypes="ccccc" />
    <path
       style="fill:#ffffff;fill-opacity:1;stroke:none;stroke-width:0.26458332px;stroke-linecap:butt;stroke-linejoin:miter;stroke-opacity:1"
       d="m 577.08319,171.52782 1.20271,-1.87089 c -0.64607,-1.33987 -2.3176,-1.48336 -4.00904,-1.60362 l -2.80633,-0.4009 c 2.12581,-0.89574 4.09547,-2.41607 6.5481,-2.00452 0.48999,1.36624 0.97999,1.13026 1.46998,1.33634 l 4.27631,2.00453 c 0.26148,1.04894 -0.21808,1.80147 -1.73725,2.13815 z"
       id="path838-8"
       inkscape:connector-curvature="0"
       sodipodi:nodetypes="ccccccccc" />
    <path
       style="fill:#ffffff;fill-opacity:1;stroke:none;stroke-width:0.26458332px;stroke-linecap:butt;stroke-linejoin:miter;stroke-opacity:1"
       d="m 577.61773,185.55947 c 3.04844,-3.19623 4.08075,-9.08065 9.22079,-9.48807 1.73078,-0.36607 3.27994,-1.00458 5.47903,-0.66818 1.36244,0.32264 2.55887,-0.0141 3.60814,-0.93544 l 3.20723,2.53906 -3.74177,0.93544 c -1.74832,2.30528 -5.84743,2.25975 -9.2208,2.93997 l -7.08264,4.81085 z"
       id="path840-3"
       inkscape:connector-curvature="0"
       sodipodi:nodetypes="ccccccccc" />
    <path
       style="fill:#ffffff;fill-opacity:1;stroke:none;stroke-width:0.26458332px;stroke-linecap:butt;stroke-linejoin:miter;stroke-opacity:1"
       d="m 567.80982,234.23494 3.39344,-8.71868 c -0.0653,-0.75381 1.70908,-1.81422 -2.53906,-1.87088 l 13.76438,-9.88897 5.34539,-3.87541 c 0,0 4.94448,-2.53906 5.74629,-2.13816 1.45106,0.31975 3.32109,3.71084 2.00452,3.87541 l -8.15172,8.28535 c -0.43994,1.64541 -0.3002,3.00098 0.26727,4.14268 l 7.08264,1.33635 c -1.38402,-11.22286 12.56167,-17.72888 18.84251,-26.59332 3.16083,-3.20117 6.06427,-6.51123 2.80633,-12.42803 l -10.02261,-1.33635 c -2.35705,1.39164 -4.98615,2.47235 -9.08716,1.87089 -1.91475,-1.45554 -3.39076,6.30242 -5.07813,9.6217 l 0.66818,3.74177 c -2.19513,0.81013 -4.33578,0.80291 -6.28083,-2.13815 -0.60878,-2.09361 -0.21895,-4.18723 0.93544,-6.28084 -1.31546,-2.09834 -3.2247,-2.63801 -6.54811,0.53454 l -4.94448,7.08265 2.80633,5.47902 4.27631,-2.80633 c -1.3579,5.1629 -3.52563,6.81657 -5.61266,8.8199 l -15.368,5.87992 c -2.061,0.82753 -3.40691,1.89342 -3.20723,3.47451 2.22063,5.39434 2.69346,11.95389 3.4745,18.30796 1.65767,-0.92745 3.59654,-1.43883 5.42646,-4.37753 z"
       id="path842-3"
       inkscape:connector-curvature="0"
       sodipodi:nodetypes="ccccccccccccccccccccccccccc" />
    <path
       style="fill:#ffffff;fill-opacity:1;stroke:none;stroke-width:0.26458332px;stroke-linecap:butt;stroke-linejoin:miter;stroke-opacity:1"
       d="m 549.31255,194.74942 8.50447,-5.48065 c 1.44891,-2.45684 2.26785,-5.03968 2.45684,-7.74851 -2.28125,0.19642 -4.23839,1.16274 -8.69345,1.70089 2.44029,1.88254 3.72364,3.72376 2.64583,5.48066 z"
       id="path844-2"
       inkscape:connector-curvature="0"
       sodipodi:nodetypes="cccccc" />
    <path
       style="fill:#ffffff;fill-opacity:1;stroke:none;stroke-width:0.26458332px;stroke-linecap:butt;stroke-linejoin:miter;stroke-opacity:1"
       d="m 598.07148,185.48901 3.2128,-4.15774 1.13393,-5.66965 6.61458,2.26786 c -1.13257,2.24819 -3.2378,3.59828 -5.81229,4.51373 -1.85347,0.65907 -3.39902,2.05578 -5.14902,3.0458 z"
       id="path846-8"
       inkscape:connector-curvature="0"
       sodipodi:nodetypes="ccccsc" />
    <path
       style="fill:#ffffff;fill-opacity:1;stroke:none;stroke-width:0.26458332px;stroke-linecap:butt;stroke-linejoin:miter;stroke-opacity:1"
       d="m 586.92118,172.07085 2.83482,-1.70089 c 3.76591,2.23664 7.37055,0.44141 10.96131,-1.7009 -0.47974,-2.08991 0.15652,-4.80479 -4.53571,-4.53571 l -5.8452,2.82532 c -0.70918,1.86435 -2.53906,3.17264 -3.41522,5.11218 z"
       id="path848-2"
       inkscape:connector-curvature="0"
       sodipodi:nodetypes="cccccc" />
    <path
       style="fill:#ffffff;fill-opacity:1;stroke:none;stroke-width:0.28579712px;stroke-linecap:butt;stroke-linejoin:miter;stroke-opacity:1"
       d="m 385.52393,76.632867 11.4036,-5.62963 c 3.45779,-8.405837 5.84437,-10.620116 -10.68186,-5.052231 4.87883,-6.586581 9.45669,-13.049025 -0.72174,-13.424485 -6.18102,0.775839 -11.42147,2.116016 -14.72363,4.619175 -1.4112,3.743358 -4.17456,6.654601 -2.3096,12.414045 5.62629,2.683541 10.68299,8.974607 17.03323,7.073126 z"
       id="path828-7"
       inkscape:connector-curvature="0"
       sodipodi:nodetypes="ccccccc" />
    <path
       style="fill:#ffffff;fill-opacity:1;stroke:none;stroke-width:0.28579712px;stroke-linecap:butt;stroke-linejoin:miter;stroke-opacity:1"
       d="m 385.52393,86.304264 c 4.08455,-3.841285 7.16657,-6.178791 10.5375,-8.949655 l 0.8661,-6.351372 c 0.15526,2.12457 0.21486,4.26826 1.29914,6.207028 2.0209,-1.128341 4.04178,-2.025321 6.06268,-1.443496 -1.14454,9.690787 -11.1717,11.657554 -20.93066,13.857541 0.50617,-0.962968 1.08905,-1.977059 2.16524,-3.320046 z"
       id="path830-2"
       inkscape:connector-curvature="0"
       sodipodi:nodetypes="ccccccc" />
    <path
       style="fill:#ffffff;fill-opacity:1;stroke:none;stroke-width:0.28579712px;stroke-linecap:butt;stroke-linejoin:miter;stroke-opacity:1"
       d="m 384.08043,111.27666 6.78443,-9.38271 -9.09401,1.73219 c -2.98358,0.57704 -3.89736,3.22387 -3.89743,6.78442 1.61923,2.23774 3.77309,2.15873 6.20701,0.8661 z"
       id="path832-5"
       inkscape:connector-curvature="0"
       sodipodi:nodetypes="ccccc" />
    <path
       style="fill:#ffffff;fill-opacity:1;stroke:none;stroke-width:0.28579712px;stroke-linecap:butt;stroke-linejoin:miter;stroke-opacity:1"
       d="m 401.54671,48.77344 c 6.79194,-2.590753 10.96699,-7.79842 16.31148,-11.836657 -2.00987,-3.730318 -6.45625,-6.416408 -12.26971,-8.516611 -3.55273,3.423173 -6.95824,6.975154 -8.37226,12.269702 1.80273,2.104607 3.4395,5.370829 5.48529,5.773975 -0.0166,0.769862 -0.61261,1.539729 -1.1548,2.309591 z"
       id="path834-3"
       inkscape:connector-curvature="0"
       sodipodi:nodetypes="cccccc" />
    <path
       style="fill:#ffffff;fill-opacity:1;stroke:none;stroke-width:0.28579712px;stroke-linecap:butt;stroke-linejoin:miter;stroke-opacity:1"
       d="m 430.56093,35.204587 h 2.88699 c 0.61339,-1.062603 1.90125,-1.900377 1.01045,-3.464379 -2.95656,-0.27537 -3.74643,0.532614 -5.19658,1.010443 0.76774,0.817984 2.75551,1.635962 1.29914,2.453936 z"
       id="path836-4"
       inkscape:connector-curvature="0"
       sodipodi:nodetypes="ccccc" />
    <path
       style="fill:#ffffff;fill-opacity:1;stroke:none;stroke-width:0.28579712px;stroke-linecap:butt;stroke-linejoin:miter;stroke-opacity:1"
       d="m 449.4707,34.627199 1.29914,-2.020893 c -0.69788,-1.447298 -2.50342,-1.602293 -4.33047,-1.732196 l -3.03135,-0.433042 c 2.29626,-0.967559 4.42385,-2.609787 7.07313,-2.16524 0.52927,1.475783 1.05856,1.220882 1.58784,1.443486 l 4.61917,2.165249 c 0.28245,1.133041 -0.23556,1.945909 -1.87654,2.309583 z"
       id="path838-4"
       inkscape:connector-curvature="0"
       sodipodi:nodetypes="ccccccccc" />
    <path
       style="fill:#ffffff;fill-opacity:1;stroke:none;stroke-width:0.28579712px;stroke-linecap:butt;stroke-linejoin:miter;stroke-opacity:1"
       d="m 450.0481,49.783882 c 3.29286,-3.452498 4.40794,-9.808721 9.9601,-10.248805 1.86955,-0.395421 3.54292,-1.085126 5.91833,-0.721752 1.47167,0.348506 2.76403,-0.01523 3.89743,-1.010444 l 3.46438,2.742637 -4.04178,1.010442 c -1.88849,2.490113 -6.31627,2.440934 -9.9601,3.175692 l -7.65052,5.196575 z"
       id="path840-8"
       inkscape:connector-curvature="0"
       sodipodi:nodetypes="ccccccccc" />
    <path
       style="fill:#ffffff;fill-opacity:1;stroke:none;stroke-width:0.28579712px;stroke-linecap:butt;stroke-linejoin:miter;stroke-opacity:1"
       d="m 439.45381,102.36201 3.66552,-9.417688 c -0.0705,-0.814247 1.8461,-1.959668 -2.74264,-2.020868 l 14.86799,-10.68185 5.77397,-4.186134 c 0,0 5.34091,-2.742638 6.20702,-2.309596 1.5674,0.345389 3.58737,4.008369 2.16524,4.186135 l -8.80531,8.949654 c -0.47522,1.777335 -0.32427,3.241594 0.2887,4.474828 l 7.65051,1.443491 c -1.49499,-12.122678 13.56884,-19.150341 20.35327,-28.725514 3.41426,-3.457834 6.55049,-7.03329 3.03133,-13.424486 l -10.8262,-1.443498 c -2.54604,1.503221 -5.38593,2.670579 -9.81575,2.020894 -2.06827,-1.572241 -3.66263,6.807737 -5.48529,10.393151 l 0.72176,4.041779 c -2.37114,0.875086 -4.68342,0.867286 -6.78442,-2.309583 -0.65759,-2.261473 -0.23651,-4.522954 1.01044,-6.784427 -1.42094,-2.26658 -3.48325,-2.849521 -7.07312,0.577398 l -5.34092,7.650524 3.03133,5.918319 4.61918,-3.031336 c -1.46677,5.576851 -3.80831,7.363109 -6.06267,9.527062 l -16.60018,6.351361 c -2.22626,0.893882 -3.68007,2.045233 -3.46438,3.753091 2.39868,5.826832 2.90942,12.912273 3.75307,19.775813 1.79058,-1.00182 3.88491,-1.5542 5.86155,-4.72852 z"
       id="path842-8"
       inkscape:connector-curvature="0"
       sodipodi:nodetypes="ccccccccccccccccccccccccccc" />
    <path
       style="fill:#ffffff;fill-opacity:1;stroke:none;stroke-width:0.28579712px;stroke-linecap:butt;stroke-linejoin:miter;stroke-opacity:1"
       d="m 419.47346,59.710666 9.18635,-5.920079 c 1.56508,-2.653824 2.44968,-5.443753 2.65382,-8.36977 -2.46416,0.212167 -4.57821,1.255964 -9.39047,1.837264 2.63595,2.033479 4.02219,4.022323 2.85795,5.920088 z"
       id="path844-6"
       inkscape:connector-curvature="0"
       sodipodi:nodetypes="cccccc" />
    <path
       style="fill:#ffffff;fill-opacity:1;stroke:none;stroke-width:0.28579712px;stroke-linecap:butt;stroke-linejoin:miter;stroke-opacity:1"
       d="m 472.1418,49.707774 3.47039,-4.491101 1.22485,-6.124233 7.14492,2.449693 c -1.22337,2.428446 -3.4974,3.886784 -6.2783,4.875633 -2.00208,0.711912 -3.67155,2.22061 -5.56186,3.290008 z"
       id="path846-4"
       inkscape:connector-curvature="0"
       sodipodi:nodetypes="ccccsc" />
    <path
       style="fill:#ffffff;fill-opacity:1;stroke:none;stroke-width:0.28579712px;stroke-linecap:butt;stroke-linejoin:miter;stroke-opacity:1"
       d="m 460.09749,35.213769 3.06211,-1.837264 c 4.06785,2.41597 7.9615,0.476802 11.84016,-1.837275 -0.5182,-2.257475 0.16907,-5.190029 -4.89937,-4.899375 l -6.31386,3.051849 c -0.76605,2.013831 -2.74264,3.427019 -3.68904,5.522065 z"
       id="path848-4"
       inkscape:connector-curvature="0"
       sodipodi:nodetypes="cccccc" />
    <path
       style="fill:#ffffff;fill-opacity:1;stroke:none;stroke-width:0.28579712px;stroke-linecap:butt;stroke-linejoin:miter;stroke-opacity:1"
       d="m 520.93825,76.792662 11.4036,-5.62963 c 3.45779,-8.405839 5.84437,-10.620118 -10.68186,-5.052232 4.87883,-6.586582 9.45669,-13.049025 -0.72174,-13.424484 -6.18102,0.775837 -11.42147,2.116015 -14.72363,4.619175 -1.4112,3.743357 -4.17456,6.654599 -2.3096,12.414043 5.62629,2.683542 10.68299,8.974609 17.03323,7.073128 z"
       id="path828-7-2"
       inkscape:connector-curvature="0"
       sodipodi:nodetypes="ccccccc" />
    <path
       style="fill:#ffffff;fill-opacity:1;stroke:none;stroke-width:0.28579712px;stroke-linecap:butt;stroke-linejoin:miter;stroke-opacity:1"
       d="m 520.93825,86.464058 c 4.08455,-3.841284 7.16657,-6.17879 10.5375,-8.949655 l 0.8661,-6.351371 c 0.15526,2.12457 0.21486,4.268259 1.29914,6.207027 2.0209,-1.128342 4.04178,-2.025322 6.06268,-1.443495 -1.14454,9.690785 -11.1717,11.657552 -20.93066,13.857539 0.50617,-0.962967 1.08905,-1.977057 2.16524,-3.320045 z"
       id="path830-2-2"
       inkscape:connector-curvature="0"
       sodipodi:nodetypes="ccccccc" />
    <path
       style="fill:#ffffff;fill-opacity:1;stroke:none;stroke-width:0.28579712px;stroke-linecap:butt;stroke-linejoin:miter;stroke-opacity:1"
       d="m 519.49475,111.43645 6.78443,-9.38271 -9.09401,1.73219 c -2.98358,0.57704 -3.89736,3.22387 -3.89743,6.78442 1.61923,2.23774 3.77309,2.15873 6.20701,0.8661 z"
       id="path832-5-8"
       inkscape:connector-curvature="0"
       sodipodi:nodetypes="ccccc" />
    <path
       style="fill:#ffffff;fill-opacity:1;stroke:none;stroke-width:0.28579712px;stroke-linecap:butt;stroke-linejoin:miter;stroke-opacity:1"
       d="m 536.96103,48.933233 c 6.79194,-2.590753 10.96699,-7.798419 16.31148,-11.836657 -2.00987,-3.730318 -6.45625,-6.416407 -12.26971,-8.51661 -3.55273,3.423172 -6.95824,6.975153 -8.37226,12.269701 1.80273,2.104607 3.4395,5.37083 5.48529,5.773975 -0.0166,0.769864 -0.61261,1.53973 -1.1548,2.309591 z"
       id="path834-3-2"
       inkscape:connector-curvature="0"
       sodipodi:nodetypes="cccccc" />
    <path
       style="fill:#ffffff;fill-opacity:1;stroke:none;stroke-width:0.28579712px;stroke-linecap:butt;stroke-linejoin:miter;stroke-opacity:1"
       d="m 565.97525,35.364381 h 2.88699 c 0.61339,-1.062604 1.90125,-1.900378 1.01045,-3.46438 -2.95656,-0.275368 -3.74643,0.532614 -5.19658,1.010443 0.76774,0.817984 2.75551,1.635961 1.29914,2.453937 z"
       id="path836-4-4"
       inkscape:connector-curvature="0"
       sodipodi:nodetypes="ccccc" />
    <path
       style="fill:#ffffff;fill-opacity:1;stroke:none;stroke-width:0.28579712px;stroke-linecap:butt;stroke-linejoin:miter;stroke-opacity:1"
       d="m 584.88502,34.786994 1.29914,-2.020896 c -0.69788,-1.447297 -2.50342,-1.602293 -4.33047,-1.732195 l -3.03135,-0.433041 c 2.29626,-0.967559 4.42385,-2.609787 7.07313,-2.16524 0.52927,1.475783 1.05856,1.220882 1.58784,1.443486 l 4.61917,2.165249 c 0.28245,1.133041 -0.23556,1.945908 -1.87654,2.309583 z"
       id="path838-4-2"
       inkscape:connector-curvature="0"
       sodipodi:nodetypes="ccccccccc" />
    <path
       style="fill:#ffffff;fill-opacity:1;stroke:none;stroke-width:0.28579712px;stroke-linecap:butt;stroke-linejoin:miter;stroke-opacity:1"
       d="m 585.46242,49.943676 c 3.29286,-3.452497 4.40794,-9.80872 9.9601,-10.248804 1.86955,-0.395423 3.54292,-1.085128 5.91833,-0.721755 1.47167,0.348507 2.76403,-0.01524 3.89743,-1.010443 l 3.46438,2.742639 -4.04178,1.010441 c -1.88849,2.490113 -6.31627,2.440935 -9.9601,3.17569 l -7.65052,5.196576 z"
       id="path840-8-0"
       inkscape:connector-curvature="0"
       sodipodi:nodetypes="ccccccccc" />
    <path
       style="fill:#ffffff;fill-opacity:1;stroke:none;stroke-width:0.28579712px;stroke-linecap:butt;stroke-linejoin:miter;stroke-opacity:1"
       d="m 574.86813,102.5218 3.66552,-9.417684 c -0.0705,-0.814247 1.8461,-1.959668 -2.74264,-2.020867 l 14.86799,-10.68185 5.77397,-4.186135 c 0,0 5.34091,-2.742639 6.20702,-2.309595 1.5674,0.345387 3.58737,4.008368 2.16524,4.186134 l -8.80531,8.949653 c -0.47522,1.777336 -0.32427,3.241596 0.2887,4.474829 l 7.65051,1.44349 c -1.49499,-12.122676 13.56884,-19.150341 20.35327,-28.725513 3.41426,-3.457835 6.55049,-7.03329 3.03133,-13.424485 l -10.8262,-1.443498 c -2.54604,1.50322 -5.38593,2.670577 -9.81575,2.020893 -2.06827,-1.572242 -3.66263,6.807737 -5.48529,10.393151 l 0.72176,4.04178 c -2.37114,0.875085 -4.68342,0.867285 -6.78442,-2.309585 -0.65759,-2.261473 -0.23651,-4.522954 1.01044,-6.784427 -1.42094,-2.26658 -3.48325,-2.849521 -7.07312,0.5774 l -5.34092,7.650522 3.03133,5.918319 4.61918,-3.031334 c -1.46677,5.576851 -3.80831,7.363108 -6.06267,9.527061 l -16.60018,6.35136 c -2.22626,0.893882 -3.68007,2.045235 -3.46438,3.753091 2.39868,5.826834 2.90942,12.91227 3.75307,19.77581 1.79058,-1.00182 3.88491,-1.5542 5.86155,-4.72852 z"
       id="path842-8-5"
       inkscape:connector-curvature="0"
       sodipodi:nodetypes="ccccccccccccccccccccccccccc" />
    <path
       style="fill:#ffffff;fill-opacity:1;stroke:none;stroke-width:0.28579712px;stroke-linecap:butt;stroke-linejoin:miter;stroke-opacity:1"
       d="m 554.88778,59.870459 9.18635,-5.920078 c 1.56508,-2.653824 2.44968,-5.443755 2.65382,-8.369771 -2.46416,0.212167 -4.57821,1.255964 -9.39047,1.837264 2.63595,2.033479 4.02219,4.022323 2.85795,5.920089 z"
       id="path844-6-5"
       inkscape:connector-curvature="0"
       sodipodi:nodetypes="cccccc" />
    <path
       style="fill:#ffffff;fill-opacity:1;stroke:none;stroke-width:0.28579712px;stroke-linecap:butt;stroke-linejoin:miter;stroke-opacity:1"
       d="m 607.55612,49.867569 3.47039,-4.491104 1.22485,-6.124231 7.14492,2.449693 c -1.22337,2.428446 -3.4974,3.886785 -6.2783,4.875633 -2.00208,0.711912 -3.67155,2.220611 -5.56186,3.290009 z"
       id="path846-4-9"
       inkscape:connector-curvature="0"
       sodipodi:nodetypes="ccccsc" />
    <path
       style="fill:#ffffff;fill-opacity:1;stroke:none;stroke-width:0.28579712px;stroke-linecap:butt;stroke-linejoin:miter;stroke-opacity:1"
       d="m 595.51181,35.373562 3.06211,-1.837264 c 4.06785,2.415971 7.9615,0.476803 11.84016,-1.837275 -0.5182,-2.257474 0.16907,-5.190028 -4.89937,-4.899374 l -6.31386,3.051849 c -0.76605,2.013832 -2.74264,3.427019 -3.68904,5.522064 z"
       id="path848-4-5"
       inkscape:connector-curvature="0"
       sodipodi:nodetypes="cccccc" />
    <rect
       style="opacity:0.98999999;fill:#ffffff;fill-opacity:1;stroke:none;stroke-width:41.28318024;stroke-linecap:round;stroke-linejoin:round;stroke-miterlimit:4;stroke-dasharray:none;stroke-opacity:1"
       id="rect1491"
       width="291.9581"
       height="14.886508"
       x="-8.3342314"
       y="163.24367" />
    <rect
       style="opacity:0.98999999;fill:#ffffff;fill-opacity:1;stroke:none;stroke-width:30.14522934;stroke-linecap:round;stroke-linejoin:round;stroke-miterlimit:4;stroke-dasharray:none;stroke-opacity:1"
       id="rect1491-2"
       width="291.95813"
       height="7.9375"
       x="-0.080492318"
       y="287.52319" />
    <rect
       style="opacity:0.98999999;fill:#ffffff;fill-opacity:1;stroke:none;stroke-width:41.28318024;stroke-linecap:round;stroke-linejoin:round;stroke-miterlimit:4;stroke-dasharray:none;stroke-opacity:1"
       id="rect1491-6"
       width="291.95813"
       height="14.886509"
       x="-0.080492318"
       y="280.57419" />
    <rect
       style="opacity:0.98999999;fill:#ffffff;fill-opacity:1;stroke:none;stroke-width:41.28318024;stroke-linecap:round;stroke-linejoin:round;stroke-miterlimit:4;stroke-dasharray:none;stroke-opacity:1"
       id="rect1491-4"
       width="291.95813"
       height="14.886509"
       x="-8.0130186"
       y="28.001404" />
    <rect
       style="opacity:0.98999999;fill:#ffffff;fill-opacity:1;stroke:none;stroke-width:41.28318024;stroke-linecap:round;stroke-linejoin:round;stroke-miterlimit:4;stroke-dasharray:none;stroke-opacity:1"
       id="rect1491-8"
       width="291.95813"
       height="14.886509"
       x="-8.3342619"
       y="145.18216" />
    <rect
       style="opacity:0.98999999;fill:#ffffff;fill-opacity:1;stroke:none;stroke-width:21.42618561;stroke-linecap:round;stroke-linejoin:round;stroke-miterlimit:4;stroke-dasharray:none;stroke-opacity:1"
       id="rect1491-7-3"
       width="132.45218"
       height="8.838891"
       x="31.705921"
       y="-65.506462"
       transform="rotate(90)" />
    <rect
       style="opacity:0.98999999;fill:#ffffff;fill-opacity:1;stroke:none;stroke-width:27.80624962;stroke-linecap:round;stroke-linejoin:round;stroke-miterlimit:4;stroke-dasharray:none;stroke-opacity:1"
       id="rect1491-7-9"
       width="132.45218"
       height="14.88651"
       x="158.567"
       y="-16.393492"
       transform="rotate(90)" />
    <rect
       style="opacity:0.98999999;fill:#ffffff;fill-opacity:1;stroke:none;stroke-width:27.80624962;stroke-linecap:round;stroke-linejoin:round;stroke-miterlimit:4;stroke-dasharray:none;stroke-opacity:1"
       id="rect1491-7-1"
       width="132.45218"
       height="14.88651"
       x="163.73706"
       y="-129.90228"
       transform="rotate(90)" />
    <rect
       style="opacity:0.98999999;fill:#ffffff;fill-opacity:1;stroke:none;stroke-width:27.80624962;stroke-linecap:round;stroke-linejoin:round;stroke-miterlimit:4;stroke-dasharray:none;stroke-opacity:1"
       id="rect1491-7-9-1"
       width="132.45218"
       height="14.88651"
       x="163.73706"
       y="-147.96379"
       transform="rotate(90)" />
    <rect
       style="opacity:0.98999999;fill:#ffffff;fill-opacity:1;stroke:none;stroke-width:27.80624962;stroke-linecap:round;stroke-linejoin:round;stroke-miterlimit:4;stroke-dasharray:none;stroke-opacity:1"
       id="rect1491-7-1-7"
       width="132.45218"
       height="14.88651"
       x="168.90712"
       y="-261.47263"
       transform="rotate(90)" />
    <rect
       style="opacity:0.98999999;fill:#ffffff;fill-opacity:1;stroke:none;stroke-width:21.42618561;stroke-linecap:round;stroke-linejoin:round;stroke-miterlimit:4;stroke-dasharray:none;stroke-opacity:1"
       id="rect1491-7-3-4"
       width="132.45218"
       height="8.838891"
       x="26.114826"
       y="-10.345883"
       transform="rotate(90)" />
    <rect
       style="opacity:0.98999999;fill:#ffffff;fill-opacity:1;stroke:none;stroke-width:21.42618561;stroke-linecap:round;stroke-linejoin:round;stroke-miterlimit:4;stroke-dasharray:none;stroke-opacity:1"
       id="rect1491-7-3-8"
       width="132.45218"
       height="8.838891"
       x="36.691109"
       y="-133.81705"
       transform="rotate(90)" />
    <rect
       style="opacity:0.98999999;fill:#ffffff;fill-opacity:1;stroke:none;stroke-width:21.42618561;stroke-linecap:round;stroke-linejoin:round;stroke-miterlimit:4;stroke-dasharray:none;stroke-opacity:1"
       id="rect1491-7-3-4-2"
       width="132.45218"
       height="8.838891"
       x="31.100014"
       y="-78.127312"
       transform="rotate(90)" />
    <rect
       style="opacity:0.98999999;fill:#ffffff;fill-opacity:1;stroke:none;stroke-width:21.42618561;stroke-linecap:round;stroke-linejoin:round;stroke-miterlimit:4;stroke-dasharray:none;stroke-opacity:1"
       id="rect1491-7-3-5"
       width="132.45218"
       height="8.838891"
       x="36.917889"
       y="-201.55042"
       transform="rotate(90)" />
    <rect
       style="opacity:0.98999999;fill:#ffffff;fill-opacity:1;stroke:none;stroke-width:21.42618561;stroke-linecap:round;stroke-linejoin:round;stroke-miterlimit:4;stroke-dasharray:none;stroke-opacity:1"
       id="rect1491-7-3-4-7"
       width="132.45218"
       height="8.838891"
       x="31.326794"
       y="-145.86063"
       transform="rotate(90)" />
    <rect
       style="opacity:0.98999999;fill:#ffffff;fill-opacity:1;stroke:none;stroke-width:21.42618561;stroke-linecap:round;stroke-linejoin:round;stroke-miterlimit:4;stroke-dasharray:none;stroke-opacity:1"
       id="rect1491-7-3-1"
       width="132.45218"
       height="8.838891"
       x="29.887537"
       y="-269.13257"
       transform="rotate(90)" />
    <rect
       style="opacity:0.98999999;fill:#ffffff;fill-opacity:1;stroke:none;stroke-width:21.42618561;stroke-linecap:round;stroke-linejoin:round;stroke-miterlimit:4;stroke-dasharray:none;stroke-opacity:1"
       id="rect1491-7-3-4-5"
       width="132.45218"
       height="8.838891"
       x="24.296444"
       y="-213.44279"
       transform="rotate(90)" />
  </g>
</svg>
